<svg version="1.2" xmlns="http://www.w3.org/2000/svg" viewBox="0 0 170 170" width="170" height="170">
	<title>instagram-logo-svg</title>
	<style>
		.s0 { fill: #ff7b00 } 
	</style>
	<g id="Layer">
		<path id="Layer" fill-rule="evenodd" class="s0" d="m169.1 46.7v75.7c0 25.7-21 46.7-46.7 46.7h-75.7c-25.8 0-46.7-21-46.7-46.7v-75.7c0-25.8 20.9-46.7 46.7-46.7h75.7c25.7 0 46.7 20.9 46.7 46.7zm-15 0c0-17.5-14.2-31.7-31.7-31.7h-75.7c-17.5 0-31.7 14.2-31.7 31.7v75.7c0 17.5 14.2 31.7 31.7 31.7h75.7c17.5 0 31.7-14.2 31.7-31.7 0 0 0-75.7 0-75.7z"/>
		<path id="Layer" fill-rule="evenodd" class="s0" d="m128.1 84.5c0 24.1-19.5 43.6-43.6 43.6-24 0-43.5-19.5-43.5-43.6 0-24 19.5-43.5 43.5-43.5 24.1 0 43.6 19.5 43.6 43.5zm-15 0c0-15.7-12.8-28.5-28.6-28.5-15.7 0-28.5 12.8-28.5 28.5 0 15.8 12.8 28.6 28.5 28.6 15.8 0 28.6-12.8 28.6-28.6z"/>
		<path id="Layer" class="s0" d="m137.7 31.5c2.1 2 3.2 4.9 3.2 7.8 0 2.8-1.1 5.7-3.2 7.7-2 2.1-4.9 3.3-7.8 3.3-2.9 0-5.7-1.2-7.7-3.3-2.1-2-3.3-4.9-3.3-7.7 0-2.9 1.2-5.8 3.3-7.8 2-2.1 4.8-3.2 7.7-3.2 2.9 0 5.8 1.1 7.8 3.2z"/>
	</g>
</svg>